<svg xmlns="http://www.w3.org/2000/svg" fill="none" viewBox="0 0 24 24"><path fill="#0f172a" d="M12.272 20.128c3.063 0 5.74-1.68 7.367-3.76a.6.6 0 0 0-.946-.738c-1.447 1.851-3.8 3.299-6.422 3.299a7.84 7.84 0 0 1-5.061-1.844 30 30 0 0 1-1.797-1.662h2.352a.6.6 0 0 0 0-1.2H4a.6.6 0 0 0-.6.6v3.764a.6.6 0 1 0 1.2 0v-2.28a31 31 0 0 0 1.838 1.696 9.04 9.04 0 0 0 5.834 2.125M20.6 5.41a.6.6 0 1 0-1.2 0v2.281a31 31 0 0 0-1.837-1.697 9.04 9.04 0 0 0-5.834-2.125c-3.064 0-5.742 1.68-7.368 3.76a.6.6 0 0 0 .946.74c1.447-1.852 3.8-3.3 6.422-3.3a7.84 7.84 0 0 1 5.061 1.843c.66.555 1.299 1.165 1.798 1.663h-2.353a.6.6 0 1 0 0 1.2H20a.6.6 0 0 0 .6-.6z"/></svg>