<svg width="24" height="24" viewBox="0 0 24 24" fill="none" xmlns="http://www.w3.org/2000/svg">
<path d="M20.4004 19.6475C20.4002 20.063 20.063 20.4002 19.6475 20.4004H14C11.3138 20.4004 9.01582 18.745 8.06641 16.4004H4.35254C3.93702 16.4002 3.59983 16.063 3.59961 15.6475V10C3.59961 6.46538 6.46538 3.59961 10 3.59961C12.8141 3.59961 15.2018 5.41634 16.0596 7.93945C18.5833 8.79688 20.4004 11.1855 20.4004 14V19.6475ZM4.40039 15.5996H10C13.0928 15.5996 15.5996 13.0928 15.5996 10C15.5996 9.43357 15.5162 8.88741 15.3604 8.37305C14.6633 6.07329 12.5264 4.40039 10 4.40039C6.90721 4.40039 4.40039 6.90721 4.40039 10V15.5996ZM16.4004 10C16.4004 13.5346 13.5346 16.4004 10 16.4004H8.94043C9.83958 18.2922 11.767 19.5996 14 19.5996H19.5996V14C19.5996 11.7289 18.2476 9.77305 16.3037 8.89453C16.3663 9.25388 16.4004 9.62316 16.4004 10Z" fill="#0F172A"/>
</svg>
