<svg width="24" height="24" viewBox="0 0 24 24" fill="none" xmlns="http://www.w3.org/2000/svg">
<path d="M4.24951 8.25H19.7485V14C19.7485 15.4209 19.7481 16.4615 19.6411 17.2578C19.535 18.047 19.328 18.5592 18.9429 18.9443C18.5578 19.3292 18.0462 19.5355 17.2573 19.6416C16.461 19.7487 15.4197 19.749 13.9985 19.749H9.99951C8.57834 19.749 7.53706 19.7487 6.74072 19.6416C5.95192 19.5355 5.4402 19.3293 5.05517 18.9443C4.67006 18.5592 4.46401 18.047 4.35791 17.2578C4.25086 16.4615 4.24951 15.421 4.24951 14V8.25ZM12.9995 10.75C12.9332 10.75 12.8696 10.7764 12.8228 10.8232C12.7759 10.8701 12.7495 10.9337 12.7495 11V13C12.7497 13.1379 12.8616 13.25 12.9995 13.25H13.981C14.7273 13.25 15.3606 13.7983 15.4663 14.5371L15.4917 14.7139C15.6074 15.5242 14.9782 16.249 14.1597 16.249C13.803 16.249 13.4607 16.1077 13.2085 15.8555L13.1763 15.8223C13.0788 15.7248 12.9204 15.7251 12.8228 15.8223C12.7251 15.9199 12.7251 16.0791 12.8228 16.1768L12.855 16.209C13.201 16.555 13.6704 16.749 14.1597 16.749C15.2825 16.749 16.1446 15.7551 15.9858 14.6436L15.9614 14.4668C15.8207 13.4815 14.9762 12.75 13.981 12.75H13.2495V11.25H15.4985C15.6365 11.25 15.7484 11.1379 15.7485 11C15.7485 10.8619 15.6366 10.75 15.4985 10.75H12.9995ZM10.2495 16.499V11C10.2495 10.9079 10.1988 10.8229 10.1177 10.7793C10.0364 10.7358 9.93755 10.7409 9.86084 10.792L8.36084 11.792C8.24605 11.8686 8.21494 12.0238 8.2915 12.1387C8.36812 12.2533 8.52339 12.2844 8.63818 12.208L9.74951 11.4668V16.499C9.74951 16.6371 9.86144 16.749 9.99951 16.749C10.1375 16.7489 10.2495 16.637 10.2495 16.499ZM15.9985 4.25C16.9445 4.25 17.3688 4.2522 17.7104 4.34375C18.6593 4.59802 19.4005 5.33916 19.6548 6.28809C19.7378 6.59812 19.7465 6.97596 19.7476 7.75H4.25048C4.25152 6.97597 4.26019 6.59812 4.34326 6.28809C4.59749 5.33923 5.33882 4.5981 6.28759 4.34375C6.62926 4.2522 7.05352 4.25 7.99951 4.25H15.9985ZM3.74951 14C3.74951 15.4067 3.74929 16.4869 3.86181 17.3242C3.97536 18.1689 4.20816 18.8043 4.70166 19.2979C5.1951 19.7912 5.82988 20.0241 6.67431 20.1377C7.51172 20.2503 8.59248 20.249 9.99951 20.249H13.9985C15.4054 20.249 16.4863 20.2503 17.3237 20.1377C18.1681 20.0242 18.8029 19.7911 19.2964 19.2979C19.7899 18.8043 20.0227 18.1689 20.1362 17.3242C20.2488 16.4869 20.2485 15.4067 20.2485 14V8C20.2485 7.08652 20.2509 6.58037 20.1382 6.15918C19.8377 5.03779 18.9616 4.16095 17.8403 3.86036C17.4191 3.74747 16.9123 3.75 15.9985 3.75H7.99951C7.08591 3.75 6.57991 3.74755 6.15869 3.86036C5.03722 4.16087 4.16133 5.03768 3.86084 6.15918C3.74805 6.58041 3.74951 7.08641 3.74951 8V14Z" fill="#0F172A"/>
</svg>
