<svg width="24" height="24" viewBox="0 0 24 24" fill="none" xmlns="http://www.w3.org/2000/svg">
<path d="M10 15.5575V18.4003C10 18.8408 9.99997 19.0614 9.96094 19.1972C9.79554 19.7709 9.16754 20.0729 8.61622 19.8436C8.48577 19.7894 8.31306 19.6523 7.96876 19.3769C7.87713 19.3035 7.83156 19.2661 7.792 19.2265C7.63244 19.0664 7.5312 18.8573 7.50586 18.6327C7.4996 18.577 7.50001 18.5178 7.50001 18.4003V14.703L10 15.5575ZM17.8311 4.97548C19.0513 4.53251 19.6618 4.31066 20.0879 4.60927C20.5137 4.90796 20.5137 5.5575 20.5137 6.85537V16.9843C20.5137 18.3474 20.5136 19.0293 20.0664 19.3261C19.619 19.6227 18.991 19.3577 17.7354 18.827L10 15.5575V7.81826L17.8311 4.97548Z" fill="#0F172A"/>
<path d="M9.40041 15.9848L8.09963 15.5405V18.3989C8.09963 18.5299 8.10093 18.5495 8.10256 18.5639C8.11266 18.6537 8.15307 18.7372 8.21681 18.8012C8.22706 18.8115 8.24151 18.8249 8.34377 18.9067C8.51976 19.0475 8.63861 19.1422 8.72951 19.2094C8.81092 19.2695 8.84264 19.2863 8.8467 19.2885C9.06718 19.3801 9.31864 19.2591 9.38478 19.0297C9.38594 19.0233 9.39176 18.987 9.39553 18.8891C9.39987 18.7762 9.40041 18.6243 9.40041 18.3989V15.9848ZM19.9141 6.85394C19.9141 6.18532 19.9125 5.75064 19.8672 5.4428C19.8238 5.14857 19.7582 5.1096 19.7432 5.09905C19.728 5.08836 19.6687 5.04051 19.3779 5.10003C19.0732 5.16248 18.6645 5.30942 18.0362 5.53753L10.5996 8.23675V15.1576L17.9688 18.2729C18.6147 18.5459 19.0369 18.7232 19.3535 18.8051C19.6584 18.8839 19.7204 18.834 19.7344 18.8246C19.7483 18.8154 19.8181 18.7783 19.8643 18.4662C19.9121 18.1427 19.9141 17.6843 19.9141 16.9828V6.85394ZM4.58596 12.0698C4.58596 12.4287 4.58691 12.6484 4.60549 12.8119C4.62233 12.96 4.64876 13.0007 4.66115 13.018C4.6737 13.0355 4.70411 13.0727 4.83791 13.1362C4.98664 13.2067 5.19363 13.2788 5.53322 13.395L9.40041 14.7172V8.6723L5.50881 10.0854C5.17763 10.2056 4.97583 10.2803 4.83107 10.352C4.70051 10.4167 4.67138 10.4538 4.6592 10.4711C4.64709 10.4884 4.62181 10.5288 4.60549 10.6742C4.58751 10.8347 4.58596 11.0497 4.58596 11.4018V12.0698ZM21.1133 16.9828C21.1133 17.6447 21.1157 18.2098 21.0518 18.642C20.9861 19.0858 20.831 19.5372 20.3975 19.8246C19.9639 20.1121 19.4881 20.0785 19.0537 19.9662C18.6308 19.8569 18.1114 19.6359 17.502 19.3783L10.5996 16.4604V18.3989C10.5996 18.6143 10.6002 18.7935 10.5947 18.935C10.5895 19.0709 10.5779 19.2213 10.5371 19.3627C10.2723 20.2804 9.26776 20.7635 8.38576 20.3969C8.24989 20.3404 8.12596 20.255 8.01662 20.1742C7.90274 20.0901 7.76305 19.9778 7.59474 19.8432C7.51378 19.7784 7.4361 19.7179 7.36721 19.6489C7.11173 19.3927 6.95061 19.0572 6.91017 18.6977C6.89931 18.6008 6.90041 18.5025 6.90041 18.3989V15.1303L5.14455 14.5307C4.83121 14.4235 4.54861 14.3274 4.32424 14.2211C4.08586 14.1081 3.85869 13.9588 3.68459 13.7153C3.51059 13.4718 3.44287 13.2087 3.4131 12.9467C3.38511 12.6999 3.38674 12.401 3.38674 12.0698V11.4018C3.38674 11.0767 3.3859 10.7832 3.4131 10.5405C3.44204 10.2827 3.50698 10.0237 3.6758 9.78265C3.84464 9.54173 4.06553 9.39197 4.29787 9.27679C4.51675 9.16834 4.79308 9.06838 5.09865 8.95745L17.626 4.4096C18.2177 4.1948 18.7249 4.00961 19.1367 3.92522C19.5616 3.83817 20.0207 3.82866 20.4317 4.11663C20.8427 4.40469 20.9906 4.83986 21.0537 5.26897C21.1149 5.6848 21.1133 6.22461 21.1133 6.85394V16.9828Z" fill="#0F172A"/>
</svg>
